<mxfile host="Electron" agent="Mozilla/5.0 (Windows NT 10.0; Win64; x64) AppleWebKit/537.36 (KHTML, like Gecko) draw.io/24.7.17 Chrome/128.0.6613.36 Electron/32.0.1 Safari/537.36" version="24.7.17">
  <diagram name="第 1 页" id="KKZOjZwv2nH5UE7Kqlf1">
    <mxGraphModel dx="855" dy="640" grid="1" gridSize="10" guides="1" tooltips="1" connect="1" arrows="1" fold="1" page="1" pageScale="1" pageWidth="827" pageHeight="1169" math="0" shadow="0">
      <root>
        <mxCell id="0" />
        <mxCell id="1" parent="0" />
        <mxCell id="dH0rpeb1SfjiAGW3sV3q-6" value="" style="edgeStyle=orthogonalEdgeStyle;rounded=0;orthogonalLoop=1;jettySize=auto;html=1;" edge="1" parent="1" source="dH0rpeb1SfjiAGW3sV3q-1" target="dH0rpeb1SfjiAGW3sV3q-5">
          <mxGeometry relative="1" as="geometry" />
        </mxCell>
        <mxCell id="dH0rpeb1SfjiAGW3sV3q-8" value="" style="edgeStyle=orthogonalEdgeStyle;rounded=0;orthogonalLoop=1;jettySize=auto;html=1;" edge="1" parent="1" source="dH0rpeb1SfjiAGW3sV3q-1" target="dH0rpeb1SfjiAGW3sV3q-7">
          <mxGeometry relative="1" as="geometry" />
        </mxCell>
        <mxCell id="dH0rpeb1SfjiAGW3sV3q-10" value="" style="edgeStyle=orthogonalEdgeStyle;rounded=0;orthogonalLoop=1;jettySize=auto;html=1;" edge="1" parent="1" source="dH0rpeb1SfjiAGW3sV3q-1" target="dH0rpeb1SfjiAGW3sV3q-9">
          <mxGeometry relative="1" as="geometry" />
        </mxCell>
        <mxCell id="dH0rpeb1SfjiAGW3sV3q-20" value="" style="edgeStyle=orthogonalEdgeStyle;rounded=0;orthogonalLoop=1;jettySize=auto;html=1;" edge="1" parent="1" source="dH0rpeb1SfjiAGW3sV3q-1" target="dH0rpeb1SfjiAGW3sV3q-19">
          <mxGeometry relative="1" as="geometry" />
        </mxCell>
        <mxCell id="dH0rpeb1SfjiAGW3sV3q-1" value="start" style="ellipse;whiteSpace=wrap;html=1;aspect=fixed;" vertex="1" parent="1">
          <mxGeometry x="360" y="50" width="80" height="80" as="geometry" />
        </mxCell>
        <mxCell id="dH0rpeb1SfjiAGW3sV3q-5" value="TIM2配置" style="whiteSpace=wrap;html=1;" vertex="1" parent="1">
          <mxGeometry x="414" y="220" width="120" height="60" as="geometry" />
        </mxCell>
        <mxCell id="dH0rpeb1SfjiAGW3sV3q-22" value="" style="edgeStyle=orthogonalEdgeStyle;rounded=0;orthogonalLoop=1;jettySize=auto;html=1;" edge="1" parent="1" source="dH0rpeb1SfjiAGW3sV3q-7" target="dH0rpeb1SfjiAGW3sV3q-21">
          <mxGeometry relative="1" as="geometry" />
        </mxCell>
        <mxCell id="dH0rpeb1SfjiAGW3sV3q-7" value="GPIO配置" style="whiteSpace=wrap;html=1;" vertex="1" parent="1">
          <mxGeometry x="140" y="220" width="120" height="60" as="geometry" />
        </mxCell>
        <mxCell id="dH0rpeb1SfjiAGW3sV3q-12" value="用于配置TIM3定时中断" style="shape=note;whiteSpace=wrap;html=1;backgroundOutline=1;darkOpacity=0.05;fillColor=#fff2cc;strokeColor=#d6b656;" vertex="1" parent="1">
          <mxGeometry x="50" y="60" width="80" height="100" as="geometry" />
        </mxCell>
        <mxCell id="dH0rpeb1SfjiAGW3sV3q-13" value="" style="endArrow=none;dashed=1;html=1;dashPattern=1 3;strokeWidth=2;rounded=0;exitX=0;exitY=0;exitDx=80;exitDy=65;exitPerimeter=0;" edge="1" parent="1" source="dH0rpeb1SfjiAGW3sV3q-9">
          <mxGeometry width="50" height="50" relative="1" as="geometry">
            <mxPoint x="290" y="290" as="sourcePoint" />
            <mxPoint x="340" y="240" as="targetPoint" />
          </mxGeometry>
        </mxCell>
        <mxCell id="dH0rpeb1SfjiAGW3sV3q-14" value="" style="endArrow=none;dashed=1;html=1;dashPattern=1 3;strokeWidth=2;rounded=0;entryX=0.05;entryY=0.37;entryDx=0;entryDy=0;entryPerimeter=0;" edge="1" parent="1" target="dH0rpeb1SfjiAGW3sV3q-15">
          <mxGeometry width="50" height="50" relative="1" as="geometry">
            <mxPoint x="534" y="250" as="sourcePoint" />
            <mxPoint x="690" y="300" as="targetPoint" />
          </mxGeometry>
        </mxCell>
        <mxCell id="dH0rpeb1SfjiAGW3sV3q-15" value="用于配置PWM" style="shape=note;whiteSpace=wrap;html=1;backgroundOutline=1;darkOpacity=0.05;fillColor=#fff2cc;strokeColor=#d6b656;" vertex="1" parent="1">
          <mxGeometry x="660" y="20" width="120" height="90" as="geometry" />
        </mxCell>
        <mxCell id="dH0rpeb1SfjiAGW3sV3q-18" value="" style="endArrow=none;dashed=1;html=1;dashPattern=1 3;strokeWidth=2;rounded=0;exitX=0;exitY=0;exitDx=80;exitDy=65;exitPerimeter=0;" edge="1" parent="1" source="dH0rpeb1SfjiAGW3sV3q-12" target="dH0rpeb1SfjiAGW3sV3q-9">
          <mxGeometry width="50" height="50" relative="1" as="geometry">
            <mxPoint x="130" y="125" as="sourcePoint" />
            <mxPoint x="340" y="240" as="targetPoint" />
          </mxGeometry>
        </mxCell>
        <mxCell id="dH0rpeb1SfjiAGW3sV3q-32" value="" style="edgeStyle=orthogonalEdgeStyle;rounded=0;orthogonalLoop=1;jettySize=auto;html=1;" edge="1" parent="1" source="dH0rpeb1SfjiAGW3sV3q-9" target="dH0rpeb1SfjiAGW3sV3q-31">
          <mxGeometry relative="1" as="geometry" />
        </mxCell>
        <mxCell id="dH0rpeb1SfjiAGW3sV3q-9" value="TIM3配置" style="whiteSpace=wrap;html=1;" vertex="1" parent="1">
          <mxGeometry x="280" y="220" width="120" height="60" as="geometry" />
        </mxCell>
        <mxCell id="dH0rpeb1SfjiAGW3sV3q-36" value="" style="edgeStyle=orthogonalEdgeStyle;rounded=0;orthogonalLoop=1;jettySize=auto;html=1;" edge="1" parent="1" source="dH0rpeb1SfjiAGW3sV3q-19" target="dH0rpeb1SfjiAGW3sV3q-35">
          <mxGeometry relative="1" as="geometry" />
        </mxCell>
        <mxCell id="dH0rpeb1SfjiAGW3sV3q-19" value="USART配置" style="whiteSpace=wrap;html=1;" vertex="1" parent="1">
          <mxGeometry x="560" y="220" width="120" height="60" as="geometry" />
        </mxCell>
        <mxCell id="dH0rpeb1SfjiAGW3sV3q-24" value="" style="edgeStyle=orthogonalEdgeStyle;rounded=0;orthogonalLoop=1;jettySize=auto;html=1;" edge="1" parent="1" source="dH0rpeb1SfjiAGW3sV3q-21" target="dH0rpeb1SfjiAGW3sV3q-23">
          <mxGeometry relative="1" as="geometry" />
        </mxCell>
        <mxCell id="dH0rpeb1SfjiAGW3sV3q-26" value="" style="edgeStyle=orthogonalEdgeStyle;rounded=0;orthogonalLoop=1;jettySize=auto;html=1;" edge="1" parent="1" source="dH0rpeb1SfjiAGW3sV3q-21" target="dH0rpeb1SfjiAGW3sV3q-25">
          <mxGeometry relative="1" as="geometry" />
        </mxCell>
        <mxCell id="dH0rpeb1SfjiAGW3sV3q-21" value="GPIO中断函数作为灯的开关" style="whiteSpace=wrap;html=1;" vertex="1" parent="1">
          <mxGeometry x="140" y="360" width="120" height="60" as="geometry" />
        </mxCell>
        <mxCell id="dH0rpeb1SfjiAGW3sV3q-28" value="" style="edgeStyle=orthogonalEdgeStyle;rounded=0;orthogonalLoop=1;jettySize=auto;html=1;" edge="1" parent="1" source="dH0rpeb1SfjiAGW3sV3q-23" target="dH0rpeb1SfjiAGW3sV3q-27">
          <mxGeometry relative="1" as="geometry" />
        </mxCell>
        <mxCell id="dH0rpeb1SfjiAGW3sV3q-23" value="led_on==1" style="shape=parallelogram;perimeter=parallelogramPerimeter;whiteSpace=wrap;html=1;fixedSize=1;" vertex="1" parent="1">
          <mxGeometry x="60" y="470" width="120" height="60" as="geometry" />
        </mxCell>
        <mxCell id="dH0rpeb1SfjiAGW3sV3q-30" value="" style="edgeStyle=orthogonalEdgeStyle;rounded=0;orthogonalLoop=1;jettySize=auto;html=1;" edge="1" parent="1" source="dH0rpeb1SfjiAGW3sV3q-25" target="dH0rpeb1SfjiAGW3sV3q-29">
          <mxGeometry relative="1" as="geometry" />
        </mxCell>
        <mxCell id="dH0rpeb1SfjiAGW3sV3q-25" value="led_on==0" style="shape=parallelogram;perimeter=parallelogramPerimeter;whiteSpace=wrap;html=1;fixedSize=1;" vertex="1" parent="1">
          <mxGeometry x="230" y="470" width="120" height="60" as="geometry" />
        </mxCell>
        <mxCell id="dH0rpeb1SfjiAGW3sV3q-27" value="breathing" style="whiteSpace=wrap;html=1;" vertex="1" parent="1">
          <mxGeometry x="60" y="610" width="120" height="60" as="geometry" />
        </mxCell>
        <mxCell id="dH0rpeb1SfjiAGW3sV3q-29" value="关灯" style="whiteSpace=wrap;html=1;" vertex="1" parent="1">
          <mxGeometry x="230" y="610" width="120" height="60" as="geometry" />
        </mxCell>
        <mxCell id="dH0rpeb1SfjiAGW3sV3q-31" value="disable" style="whiteSpace=wrap;html=1;" vertex="1" parent="1">
          <mxGeometry x="280" y="360" width="120" height="60" as="geometry" />
        </mxCell>
        <mxCell id="dH0rpeb1SfjiAGW3sV3q-38" value="" style="edgeStyle=orthogonalEdgeStyle;rounded=0;orthogonalLoop=1;jettySize=auto;html=1;" edge="1" parent="1" source="dH0rpeb1SfjiAGW3sV3q-35" target="dH0rpeb1SfjiAGW3sV3q-37">
          <mxGeometry relative="1" as="geometry" />
        </mxCell>
        <mxCell id="dH0rpeb1SfjiAGW3sV3q-42" value="" style="edgeStyle=orthogonalEdgeStyle;rounded=0;orthogonalLoop=1;jettySize=auto;html=1;" edge="1" parent="1" source="dH0rpeb1SfjiAGW3sV3q-35" target="dH0rpeb1SfjiAGW3sV3q-41">
          <mxGeometry relative="1" as="geometry" />
        </mxCell>
        <mxCell id="dH0rpeb1SfjiAGW3sV3q-47" value="" style="edgeStyle=orthogonalEdgeStyle;rounded=0;orthogonalLoop=1;jettySize=auto;html=1;" edge="1" parent="1" source="dH0rpeb1SfjiAGW3sV3q-35" target="dH0rpeb1SfjiAGW3sV3q-46">
          <mxGeometry relative="1" as="geometry" />
        </mxCell>
        <mxCell id="dH0rpeb1SfjiAGW3sV3q-57" value="" style="edgeStyle=orthogonalEdgeStyle;rounded=0;orthogonalLoop=1;jettySize=auto;html=1;" edge="1" parent="1" source="dH0rpeb1SfjiAGW3sV3q-35" target="dH0rpeb1SfjiAGW3sV3q-56">
          <mxGeometry relative="1" as="geometry" />
        </mxCell>
        <mxCell id="dH0rpeb1SfjiAGW3sV3q-35" value="USART中断函数切换模式" style="whiteSpace=wrap;html=1;" vertex="1" parent="1">
          <mxGeometry x="560" y="360" width="120" height="60" as="geometry" />
        </mxCell>
        <mxCell id="dH0rpeb1SfjiAGW3sV3q-40" value="" style="edgeStyle=orthogonalEdgeStyle;rounded=0;orthogonalLoop=1;jettySize=auto;html=1;" edge="1" parent="1" source="dH0rpeb1SfjiAGW3sV3q-37" target="dH0rpeb1SfjiAGW3sV3q-39">
          <mxGeometry relative="1" as="geometry" />
        </mxCell>
        <mxCell id="dH0rpeb1SfjiAGW3sV3q-37" value="mode==breath" style="shape=parallelogram;perimeter=parallelogramPerimeter;whiteSpace=wrap;html=1;fixedSize=1;" vertex="1" parent="1">
          <mxGeometry x="470" y="460" width="120" height="60" as="geometry" />
        </mxCell>
        <mxCell id="dH0rpeb1SfjiAGW3sV3q-39" value="mode=blink" style="whiteSpace=wrap;html=1;" vertex="1" parent="1">
          <mxGeometry x="470" y="560" width="120" height="60" as="geometry" />
        </mxCell>
        <mxCell id="dH0rpeb1SfjiAGW3sV3q-44" value="" style="edgeStyle=orthogonalEdgeStyle;rounded=0;orthogonalLoop=1;jettySize=auto;html=1;" edge="1" parent="1" source="dH0rpeb1SfjiAGW3sV3q-41" target="dH0rpeb1SfjiAGW3sV3q-43">
          <mxGeometry relative="1" as="geometry" />
        </mxCell>
        <mxCell id="dH0rpeb1SfjiAGW3sV3q-41" value="mode==blink" style="shape=parallelogram;perimeter=parallelogramPerimeter;whiteSpace=wrap;html=1;fixedSize=1;" vertex="1" parent="1">
          <mxGeometry x="650" y="460" width="120" height="60" as="geometry" />
        </mxCell>
        <mxCell id="dH0rpeb1SfjiAGW3sV3q-43" value="mode=breath" style="whiteSpace=wrap;html=1;" vertex="1" parent="1">
          <mxGeometry x="650" y="560" width="120" height="60" as="geometry" />
        </mxCell>
        <mxCell id="dH0rpeb1SfjiAGW3sV3q-46" value="TIM3 enable" style="whiteSpace=wrap;html=1;" vertex="1" parent="1">
          <mxGeometry x="730" y="690" width="97" height="50" as="geometry" />
        </mxCell>
        <mxCell id="dH0rpeb1SfjiAGW3sV3q-48" value="" style="endArrow=classic;html=1;rounded=0;exitX=0.5;exitY=1;exitDx=0;exitDy=0;" edge="1" parent="1" source="dH0rpeb1SfjiAGW3sV3q-9" target="dH0rpeb1SfjiAGW3sV3q-49">
          <mxGeometry width="50" height="50" relative="1" as="geometry">
            <mxPoint x="550" y="500" as="sourcePoint" />
            <mxPoint x="450" y="700" as="targetPoint" />
          </mxGeometry>
        </mxCell>
        <mxCell id="dH0rpeb1SfjiAGW3sV3q-51" value="" style="edgeStyle=orthogonalEdgeStyle;rounded=0;orthogonalLoop=1;jettySize=auto;html=1;" edge="1" parent="1" source="dH0rpeb1SfjiAGW3sV3q-49" target="dH0rpeb1SfjiAGW3sV3q-50">
          <mxGeometry relative="1" as="geometry" />
        </mxCell>
        <mxCell id="dH0rpeb1SfjiAGW3sV3q-49" value="中断函数" style="rounded=0;whiteSpace=wrap;html=1;" vertex="1" parent="1">
          <mxGeometry x="390" y="669.9999999999998" width="120" height="60" as="geometry" />
        </mxCell>
        <mxCell id="dH0rpeb1SfjiAGW3sV3q-53" value="" style="edgeStyle=orthogonalEdgeStyle;rounded=0;orthogonalLoop=1;jettySize=auto;html=1;" edge="1" parent="1" source="dH0rpeb1SfjiAGW3sV3q-50" target="dH0rpeb1SfjiAGW3sV3q-52">
          <mxGeometry relative="1" as="geometry" />
        </mxCell>
        <mxCell id="dH0rpeb1SfjiAGW3sV3q-55" value="" style="edgeStyle=orthogonalEdgeStyle;rounded=0;orthogonalLoop=1;jettySize=auto;html=1;" edge="1" parent="1" source="dH0rpeb1SfjiAGW3sV3q-50" target="dH0rpeb1SfjiAGW3sV3q-54">
          <mxGeometry relative="1" as="geometry" />
        </mxCell>
        <mxCell id="dH0rpeb1SfjiAGW3sV3q-50" value="TIM_GetITStatus(TIM3,TIM_IT_Update)==SET" style="shape=parallelogram;perimeter=parallelogramPerimeter;whiteSpace=wrap;html=1;fixedSize=1;rounded=0;" vertex="1" parent="1">
          <mxGeometry x="305" y="790" width="290" height="60" as="geometry" />
        </mxCell>
        <mxCell id="dH0rpeb1SfjiAGW3sV3q-52" value="mode=breath" style="whiteSpace=wrap;html=1;rounded=0;" vertex="1" parent="1">
          <mxGeometry x="310" y="900" width="120" height="60" as="geometry" />
        </mxCell>
        <mxCell id="dH0rpeb1SfjiAGW3sV3q-54" value="disable" style="whiteSpace=wrap;html=1;rounded=0;" vertex="1" parent="1">
          <mxGeometry x="475" y="900" width="120" height="60" as="geometry" />
        </mxCell>
        <mxCell id="dH0rpeb1SfjiAGW3sV3q-56" value="OLED_ShowChar" style="whiteSpace=wrap;html=1;" vertex="1" parent="1">
          <mxGeometry x="640" y="860" width="120" height="60" as="geometry" />
        </mxCell>
        <mxCell id="dH0rpeb1SfjiAGW3sV3q-60" value="" style="endArrow=none;dashed=1;html=1;dashPattern=1 3;strokeWidth=2;rounded=0;exitX=0.015;exitY=0.614;exitDx=0;exitDy=0;exitPerimeter=0;" edge="1" parent="1" source="dH0rpeb1SfjiAGW3sV3q-35" target="dH0rpeb1SfjiAGW3sV3q-61">
          <mxGeometry width="50" height="50" relative="1" as="geometry">
            <mxPoint x="450" y="330" as="sourcePoint" />
            <mxPoint x="270" y="761.8181818181819" as="targetPoint" />
          </mxGeometry>
        </mxCell>
        <mxCell id="dH0rpeb1SfjiAGW3sV3q-61" value="若接收到目标数据，则进行下一步，否则只ShowChar" style="shape=note;whiteSpace=wrap;html=1;backgroundOutline=1;darkOpacity=0.05;fillColor=#fff2cc;strokeColor=#d6b656;" vertex="1" parent="1">
          <mxGeometry x="120" y="740" width="130" height="90" as="geometry" />
        </mxCell>
      </root>
    </mxGraphModel>
  </diagram>
</mxfile>
